<svg id="Calque_1" data-name="Calque 1" xmlns="http://www.w3.org/2000/svg" viewBox="0 0 171.82 129.63"><defs><style>.cls-1{fill:#7fbb53;}.cls-2{fill:#373389;}</style></defs><title>fcpe-color</title><path class="cls-1" d="M95.32,39.59,86,47.26a43,43,0,0,1,5.1,3.91A48.69,48.69,0,0,1,96,56.62c6.51-4.81,9.18-6.43,9.18-6.43a62.3,62.3,0,0,0-4.5-5.83A24.84,24.84,0,0,0,95.32,39.59Z"/><ellipse class="cls-1" cx="109.6" cy="24.14" rx="3.26" ry="3.45" transform="translate(-2.4 17.01) rotate(-8.78)"/><path class="cls-1" d="M116.78,24.15c-2.33,5-9.58,5.94-14.27,6a1.39,1.39,0,0,0-.92,2.42c9.08,8,9.42,15,9.42,15a49.08,49.08,0,0,1,10.51-3.93s2.25-11.88-2.36-19.66a1.37,1.37,0,0,0-2.38.17Z"/><path class="cls-1" d="M143,12.64c3.59-.25,4.77-7.87,1-8.59-2.93-.56-3.68,3-3.68,3C139.56,10.79,141.68,12.73,143,12.64Z"/><path class="cls-1" d="M171.39,41.87C167,28.81,157,21.27,152.68,18.53c3.78-8.25,6-14.11,6.42-16.8S158,.09,157.48.89c-5.6,8.59-14,21.68-33.78,14.45-1.28-.47-1.44-.14-1.44-.14-.45.56.4,1.07.4,1.07,1.54,1,4.39,4.37,17.24,7.91-.8,11.6-7.35,17.32-10.78,17.79-1.5.21-1.46,1-1.46,1-.07.54.76.9,1.17,1,3.75.64,9.34-2.53,11.93-5a30,30,0,0,0,6-8.33,5.35,5.35,0,0,1,7.11-2.32c9.59,4.91,15.74,14.29,15.74,14.29,1.23,2,1.7,1.59,1.7,1.59C172.41,43.81,171.39,41.87,171.39,41.87Z"/><path class="cls-2" d="M165.4,81.72c-3.5,1.76-16.72,10.19-28.76,9.32a10,10,0,0,1-3.59-1c.89-.32,1.77-.65,2.65-1,6.06-2.47,11.95-5.64,15.92-11,3.46-4.7,4.08-12.2-1.81-15.39-4.33-2.34-12.57.46-17.07,3.63-4.8,3.37-9.43,7.92-11.42,13.55a18.34,18.34,0,0,0-1.06,5.48.39.39,0,0,1-.28.35c-3.82.81-8,1.48-10.68,1.85a19.38,19.38,0,0,0,6.19-8.45c1.75-4.93.77-11.28-3.41-14.72-4.43-3.64-10.56-2.86-15.54-.84a42,42,0,0,0-7.81,4.28c.11-.52.24-1.16.45-2.07.64-2.7-2.43-4.35-4.7-2.74a3.14,3.14,0,0,0-1.11,1.52c-1.51,4.18-2.84,7.59-4.1,10.85a91.18,91.18,0,0,1-7.32,6,53.81,53.81,0,0,1-12,6.43c-1,.37-6.25,2.54-8.43.6-4.31-3.85,1.83-10.42,5-13.06a31,31,0,0,1,13.35-6.89c5.18-1.21,3.44-6.78-.75-6.23-1.75.22-3.23.48-4.7.81-7.7,1.67-15,5.22-21,8.54-1.59.87-3.12,1.78-4.65,2.71l.91-2.81,5.19-16.35a119.24,119.24,0,0,1,6.07-16c4.4-9.05,10.32-9.85,12.59-8.65,3.36,1.76,3.17,7,3,8.91a26.93,26.93,0,0,1-4,11.28c-1.47,2.26.84,3.56,2.48,1.9a22.75,22.75,0,0,0,5.46-10.38c1-4,1.16-8.57-.76-12.34a9.92,9.92,0,0,0-9.52-5.43c-3.6.23-11.26,1.68-17.52,16.11-2.3,5.34-5.16,12.71-7.27,19.21Q32,70.24,28.55,80.76a122.12,122.12,0,0,1-13.12,7.69C10.91,90.65,6.33,93,1.25,93.3a1.25,1.25,0,0,0,0,2.5c8.72.43,17-3,24.65-6.9l-.06.17c-1.65,5.09-9.76,31.35-11,35.14-.37,1.14-.6,4.09,2,5s4.47-1.54,5-2.92c1.19-3.16,2-6,3-9l2.45-7.7c1.41-4.4,2.83-8.8,4.23-13.19s2.83-8.84,4.25-13.26c3.1-2,6.22-4.1,9.33-5.78a.36.36,0,0,1,.49.5,25.56,25.56,0,0,0-1.42,2.93c-2.38,5.52-1.36,11.54,3.76,14.29,3.75,2,9.42.92,13.24-.38a59,59,0,0,0,13.31-6.62L74,89.43c-1.65,5.09-9.87,31.22-11.07,35-.36,1.14-.6,4.09,2,5s4.47-1.54,5-2.91c1.19-3.16,2-6,3-9l2.45-7.7c1.41-4.4,2.83-8.79,4.23-13.2l5.45-17c3.88-3.48,8.22-6.94,12.95-9a16.58,16.58,0,0,1,6.41-1.55,4,4,0,0,1,3.93,2.49c1.29,4.14-1.84,9.27-5,11.59C96.74,88,92.77,88.53,91.5,88.27a3.33,3.33,0,0,0-3.63,1.6,3.4,3.4,0,0,0,1.21,4.61c3.45,1.67,7.26,1.82,11,1.76a105,105,0,0,0,17.49-2.08c1.64-.3,3.28-.65,4.91-1a.56.56,0,0,1,.35.11c18.67,10.5,41-6.06,44.14-9.53a1.29,1.29,0,0,0-1.57-2Zm-36.74,1.71a10.83,10.83,0,0,1,1.72-6.27c5.31-8.24,14.6-10,16.13-8.26s-.25,4.85-1.07,5.75c-3.45,3.77-8.17,5.88-12.53,7.42-1.67.58-2.77.93-4.25,1.35Z"/></svg>